<svg xmlns="http://www.w3.org/2000/svg" xmlns:xlink="http://www.w3.org/1999/xlink" width="500" zoomAndPan="magnify" viewBox="0 0 375 374.999991" height="500" preserveAspectRatio="xMidYMid meet" version="1.0"><defs><g/><clipPath id="4606343c7d"><path d="M 208.671875 37.503906 L 274.734375 37.503906 L 274.734375 254.269531 L 208.671875 254.269531 Z M 208.671875 37.503906 " clip-rule="nonzero"/></clipPath><clipPath id="5ec545d799"><path d="M 274.734375 59.523438 L 274.734375 254.128906 L 208.671875 232.109375 L 208.671875 37.503906 Z M 274.734375 59.523438 " clip-rule="nonzero"/></clipPath><clipPath id="f65ea86d88"><path d="M 153.445312 37.484375 L 208.679688 37.484375 L 208.679688 99.625 L 153.445312 99.625 Z M 153.445312 37.484375 " clip-rule="nonzero"/></clipPath><clipPath id="6fbd4131e9"><path d="M 153.445312 55.902344 L 153.445312 99.625 L 208.679688 81.214844 L 208.679688 37.492188 Z M 153.445312 55.902344 " clip-rule="nonzero"/></clipPath><clipPath id="60389cf0be"><path d="M 128.515625 90.953125 L 175.910156 90.953125 L 175.910156 220.925781 L 128.515625 220.925781 Z M 128.515625 90.953125 " clip-rule="nonzero"/></clipPath><clipPath id="2d92e26d33"><path d="M 175.910156 106.753906 L 175.910156 220.84375 L 128.515625 205.042969 L 128.515625 90.953125 Z M 175.910156 106.753906 " clip-rule="nonzero"/></clipPath><clipPath id="b3f8f6a98f"><path d="M 91.183594 90.828125 L 128.523438 90.828125 L 128.523438 181.84375 L 91.183594 181.84375 Z M 91.183594 90.828125 " clip-rule="nonzero"/></clipPath><clipPath id="96e7364d6f"><path d="M 91.183594 103.378906 L 91.183594 181.84375 L 128.523438 169.394531 L 128.523438 90.933594 Z M 91.183594 103.378906 " clip-rule="nonzero"/></clipPath></defs><g clip-path="url(#4606343c7d)"><g clip-path="url(#5ec545d799)"><path fill="#30638e" d="M 274.734375 37.503906 L 274.734375 254.011719 L 208.671875 254.011719 L 208.671875 37.503906 Z M 274.734375 37.503906 " fill-opacity="1" fill-rule="nonzero"/></g></g><g clip-path="url(#f65ea86d88)"><g clip-path="url(#6fbd4131e9)"><path fill="#023047" d="M 153.445312 99.625 L 153.445312 37.484375 L 208.679688 37.484375 L 208.679688 99.625 Z M 153.445312 99.625 " fill-opacity="1" fill-rule="nonzero"/></g></g><g clip-path="url(#60389cf0be)"><g clip-path="url(#2d92e26d33)"><path fill="#30638e" d="M 175.910156 90.953125 L 175.910156 220.925781 L 128.515625 220.925781 L 128.515625 90.953125 Z M 175.910156 90.953125 " fill-opacity="1" fill-rule="nonzero"/></g></g><g clip-path="url(#b3f8f6a98f)"><g clip-path="url(#96e7364d6f)"><path fill="#023047" d="M 91.183594 181.84375 L 91.183594 90.972656 L 128.523438 90.972656 L 128.523438 181.84375 Z M 91.183594 181.84375 " fill-opacity="1" fill-rule="nonzero"/></g></g><g fill="#023047" fill-opacity="1"><g transform="translate(42.451395, 309.475416)"><g><path d="M 12.5 -31.796875 L 0.203125 -31.796875 L 0.203125 -35 L 28.5 -35 L 28.5 -31.796875 L 16.203125 -31.796875 L 16.203125 0 L 12.5 0 Z M 12.5 -31.796875 "/></g></g></g><g fill="#023047" fill-opacity="1"><g transform="translate(71.148747, 309.475416)"><g><path d="M 34.953125 -35 L 34.953125 0 L 31.296875 0 L 31.296875 -16.15625 L 9.40625 -16.15625 L 9.40625 0 L 5.703125 0 L 5.703125 -35 L 9.40625 -35 L 9.40625 -19.40625 L 31.296875 -19.40625 L 31.296875 -35 Z M 34.953125 -35 "/></g></g></g><g fill="#023047" fill-opacity="1"><g transform="translate(111.795003, 309.475416)"><g><path d="M 30.453125 -3.203125 L 30.453125 0 L 5.703125 0 L 5.703125 -35 L 29.703125 -35 L 29.703125 -31.796875 L 9.40625 -31.796875 L 9.40625 -19.34375 L 27.5 -19.34375 L 27.5 -16.203125 L 9.40625 -16.203125 L 9.40625 -3.203125 Z M 30.453125 -3.203125 "/></g></g></g><g fill="#023047" fill-opacity="1"><g transform="translate(145.241927, 309.475416)"><g/></g></g><g fill="#023047" fill-opacity="1"><g transform="translate(158.340726, 309.475416)"><g><path d="M 34.953125 -35 L 34.953125 0 L 31.296875 0 L 31.296875 -16.15625 L 9.40625 -16.15625 L 9.40625 0 L 5.703125 0 L 5.703125 -35 L 9.40625 -35 L 9.40625 -19.40625 L 31.296875 -19.40625 L 31.296875 -35 Z M 34.953125 -35 "/></g></g></g><g fill="#023047" fill-opacity="1"><g transform="translate(198.986981, 309.475416)"><g><path d="M 21 0.296875 C 17.53125 0.296875 14.382812 -0.472656 11.5625 -2.015625 C 8.75 -3.566406 6.550781 -5.691406 4.96875 -8.390625 C 3.382812 -11.097656 2.59375 -14.132812 2.59375 -17.5 C 2.59375 -20.863281 3.382812 -23.894531 4.96875 -26.59375 C 6.550781 -29.300781 8.75 -31.425781 11.5625 -32.96875 C 14.382812 -34.519531 17.53125 -35.296875 21 -35.296875 C 24.46875 -35.296875 27.59375 -34.53125 30.375 -33 C 33.15625 -31.46875 35.34375 -29.34375 36.9375 -26.625 C 38.539062 -23.90625 39.34375 -20.863281 39.34375 -17.5 C 39.34375 -14.132812 38.539062 -11.09375 36.9375 -8.375 C 35.34375 -5.65625 33.15625 -3.53125 30.375 -2 C 27.59375 -0.46875 24.46875 0.296875 21 0.296875 Z M 21 -3 C 23.769531 -3 26.269531 -3.625 28.5 -4.875 C 30.726562 -6.125 32.476562 -7.859375 33.75 -10.078125 C 35.019531 -12.296875 35.65625 -14.769531 35.65625 -17.5 C 35.65625 -20.226562 35.019531 -22.703125 33.75 -24.921875 C 32.476562 -27.140625 30.726562 -28.875 28.5 -30.125 C 26.269531 -31.375 23.769531 -32 21 -32 C 18.226562 -32 15.71875 -31.375 13.46875 -30.125 C 11.21875 -28.875 9.453125 -27.140625 8.171875 -24.921875 C 6.890625 -22.703125 6.25 -20.226562 6.25 -17.5 C 6.25 -14.769531 6.890625 -12.296875 8.171875 -10.078125 C 9.453125 -7.859375 11.21875 -6.125 13.46875 -4.875 C 15.71875 -3.625 18.226562 -3 21 -3 Z M 21 -3 "/></g></g></g><g fill="#023047" fill-opacity="1"><g transform="translate(240.933121, 309.475416)"><g><path d="M 12.5 -31.796875 L 0.203125 -31.796875 L 0.203125 -35 L 28.5 -35 L 28.5 -31.796875 L 16.203125 -31.796875 L 16.203125 0 L 12.5 0 Z M 12.5 -31.796875 "/></g></g></g><g fill="#023047" fill-opacity="1"><g transform="translate(269.630474, 309.475416)"><g><path d="M 30.453125 -3.203125 L 30.453125 0 L 5.703125 0 L 5.703125 -35 L 29.703125 -35 L 29.703125 -31.796875 L 9.40625 -31.796875 L 9.40625 -19.34375 L 27.5 -19.34375 L 27.5 -16.203125 L 9.40625 -16.203125 L 9.40625 -3.203125 Z M 30.453125 -3.203125 "/></g></g></g><g fill="#023047" fill-opacity="1"><g transform="translate(303.077398, 309.475416)"><g><path d="M 5.703125 -35 L 9.40625 -35 L 9.40625 -3.203125 L 29 -3.203125 L 29 0 L 5.703125 0 Z M 5.703125 -35 "/></g></g></g><g fill="#023047" fill-opacity="1"><g transform="translate(137.005225, 330.952485)"><g><path d="M 4.21875 -9.46875 C 2.40625 -9.46875 1.046875 -8.546875 1.046875 -6.90625 C 1.046875 -5.765625 1.78125 -4.828125 3.140625 -4.5 L 5.109375 -4.03125 C 6.125 -3.78125 6.640625 -3.265625 6.640625 -2.515625 C 6.640625 -1.5 5.796875 -0.859375 4.390625 -0.859375 C 3 -0.859375 1.96875 -1.546875 1.640625 -2.75 L 0.578125 -2.515625 C 1.203125 -0.703125 2.46875 0.140625 4.375 0.140625 C 6.671875 0.140625 7.859375 -1.109375 7.859375 -2.671875 C 7.859375 -3.859375 7.078125 -4.78125 5.78125 -5.109375 L 3.359375 -5.71875 C 2.6875 -5.875 2.1875 -6.28125 2.1875 -7.0625 C 2.1875 -7.96875 3.171875 -8.546875 4.1875 -8.546875 C 5.21875 -8.546875 6.28125 -7.875 6.484375 -6.90625 L 7.546875 -7.1875 C 7.03125 -8.640625 5.859375 -9.46875 4.21875 -9.46875 Z M 4.21875 -9.46875 "/></g></g></g><g fill="#023047" fill-opacity="1"><g transform="translate(148.467012, 330.952485)"><g><path d="M 1.1875 -9.34375 L 1.1875 0 L 2.359375 0 L 2.359375 -9.34375 Z M 1.1875 -9.34375 "/></g></g></g><g fill="#023047" fill-opacity="1"><g transform="translate(155.035528, 330.952485)"><g><path d="M 1.0625 -9.34375 L 1.0625 0 L 2.046875 0 L 2.046875 -8.140625 L 6.796875 0 L 7.9375 0 L 7.9375 -9.34375 L 6.953125 -9.34375 L 6.953125 -1.734375 L 2.53125 -9.34375 Z M 1.0625 -9.34375 "/></g></g></g><g fill="#023047" fill-opacity="1"><g transform="translate(167.041009, 330.952485)"><g><path d="M 4.46875 -9.46875 C 2.140625 -9.46875 0.578125 -7.65625 0.578125 -4.765625 C 0.578125 -2.0625 1.953125 0.140625 4.375 0.140625 C 6.109375 0.140625 7.328125 -0.859375 7.828125 -2.90625 L 6.765625 -3.140625 C 6.375 -1.5625 5.578125 -0.84375 4.328125 -0.84375 C 2.78125 -0.84375 1.84375 -2.578125 1.84375 -4.546875 C 1.84375 -6.8125 2.671875 -8.5 4.421875 -8.5 C 5.5625 -8.5 6.296875 -7.796875 6.71875 -6.28125 L 7.828125 -6.484375 C 7.390625 -8.390625 6.1875 -9.46875 4.46875 -9.46875 Z M 4.46875 -9.46875 "/></g></g></g><g fill="#023047" fill-opacity="1"><g transform="translate(178.502795, 330.952485)"><g><path d="M 1.15625 -9.34375 L 1.15625 0 L 7.203125 0 L 7.203125 -1 L 2.328125 -1 L 2.328125 -4.421875 L 6.078125 -4.421875 L 6.078125 -5.359375 L 2.328125 -5.359375 L 2.328125 -8.328125 L 7.0625 -8.328125 L 7.0625 -9.34375 Z M 1.15625 -9.34375 "/></g></g></g><g fill="#023047" fill-opacity="1"><g transform="translate(189.14904, 330.952485)"><g/></g></g><g fill="#023047" fill-opacity="1"><g transform="translate(196.261252, 330.952485)"><g><path d="M 4.046875 -9.46875 C 2.28125 -9.46875 1.015625 -8.4375 0.6875 -6.734375 L 1.765625 -6.40625 C 1.84375 -7.640625 2.84375 -8.53125 4 -8.53125 C 5.109375 -8.53125 6.125 -7.796875 6.125 -6.6875 C 6.125 -5.625 5.453125 -4.71875 4.265625 -3.78125 L 0.6875 -0.96875 L 0.6875 0 L 7.3125 0 L 7.3125 -0.96875 L 2.15625 -0.96875 L 5.25 -3.328125 C 5.53125 -3.546875 6.46875 -4.359375 6.921875 -5.21875 C 7.171875 -5.671875 7.296875 -6.171875 7.296875 -6.6875 C 7.296875 -8.359375 5.78125 -9.46875 4.046875 -9.46875 Z M 4.046875 -9.46875 "/></g></g></g><g fill="#023047" fill-opacity="1"><g transform="translate(207.451194, 330.952485)"><g><path d="M 4.03125 -9.46875 C 1.71875 -9.46875 0.546875 -7.265625 0.546875 -4.59375 C 0.546875 -2.1875 1.734375 0.0625 4.0625 0.140625 C 6.25 0.203125 7.625 -2.0625 7.625 -4.640625 C 7.625 -6.84375 6.671875 -9.46875 4.03125 -9.46875 Z M 1.734375 -4.734375 C 1.734375 -7.078125 2.53125 -8.578125 4 -8.578125 C 5.625 -8.578125 6.421875 -6.984375 6.421875 -4.46875 C 6.421875 -2.3125 5.640625 -0.765625 4.125 -0.765625 C 2.578125 -0.765625 1.734375 -2.25 1.734375 -4.734375 Z M 1.734375 -4.734375 "/></g></g></g><g fill="#023047" fill-opacity="1"><g transform="translate(218.641136, 330.952485)"><g><path d="M 4.046875 -9.46875 C 2.28125 -9.46875 1.015625 -8.4375 0.6875 -6.734375 L 1.765625 -6.40625 C 1.84375 -7.640625 2.84375 -8.53125 4 -8.53125 C 5.109375 -8.53125 6.125 -7.796875 6.125 -6.6875 C 6.125 -5.625 5.453125 -4.71875 4.265625 -3.78125 L 0.6875 -0.96875 L 0.6875 0 L 7.3125 0 L 7.3125 -0.96875 L 2.15625 -0.96875 L 5.25 -3.328125 C 5.53125 -3.546875 6.46875 -4.359375 6.921875 -5.21875 C 7.171875 -5.671875 7.296875 -6.171875 7.296875 -6.6875 C 7.296875 -8.359375 5.78125 -9.46875 4.046875 -9.46875 Z M 4.046875 -9.46875 "/></g></g></g><g fill="#023047" fill-opacity="1"><g transform="translate(229.831078, 330.952485)"><g><path d="M 4.734375 -9.34375 L 0.46875 -2.953125 L 0.46875 -2.171875 L 5.0625 -2.171875 L 5.0625 0 L 6.1875 0 L 6.1875 -2.171875 L 7.71875 -2.171875 L 7.71875 -3.078125 L 6.1875 -3.078125 L 6.1875 -9.34375 Z M 5.0625 -3.078125 L 1.671875 -3.078125 L 5.0625 -8.421875 Z M 5.0625 -3.078125 "/></g></g></g></svg>